{"title":"The Hunger Games Catching Fire ITA ENG AC3 BDRip 1080p X265 ZMac","uid":11664717,"size":6982744549,"categoryP":"video","categoryS":"hd___movies","magnet":"?xt=urn:btih:c086c1da9605150a075d65e92bb91abdd91dfcab&amp;dn=The+Hunger+Games+Catching+Fire+ITA+ENG+AC3+BDRip+1080p+X265+ZMac&amp;tr=udp%3A%2F%2Ftracker.openbittorrent.com%3A80&amp;tr=udp%3A%2F%2Fopen.demonii.com%3A1337&amp;tr=udp%3A%2F%2Ftracker.coppersurfer.tk%3A6969&amp;tr=udp%3A%2F%2Fexodus.desync.com%3A6969","seeders":18,"leechers":4,"uploader":"ZMachTNT","files":-1,"time":1418038161,"description":"The Hunger Games: Catching Fire\n\nHunger Games: La Ragazza di Fuoco - ZMachine\n\n:: Screenshots ::\n\n2.4 : 1 Aspect Ratio\n &lt;a href=&quot;\nhttp://i.imgur.com/s20ihPSl.png&quot; rel=&quot;nofollow&quot; target=&quot;_NEW&quot;&gt;\nhttp://i.imgur.com/s20ihPSl.png&lt;/a&gt; &lt;a href=&quot;\nhttp://i.imgur.com/hKTkw4wl.png&quot; rel=&quot;nofollow&quot; target=&quot;_NEW&quot;&gt;\nhttp://i.imgur.com/hKTkw4wl.png&lt;/a&gt; &lt;a href=&quot;\nhttp://i.imgur.com/a8YJK5Rl.png&quot; rel=&quot;nofollow&quot; target=&quot;_NEW&quot;&gt;\nhttp://i.imgur.com/a8YJK5Rl.png&lt;/a&gt; \n\n1.78 : 1 Aspect Ratio\n &lt;a href=&quot;\nhttp://i.imgur.com/a2Epmt8l.png&quot; rel=&quot;nofollow&quot; target=&quot;_NEW&quot;&gt;\nhttp://i.imgur.com/a2Epmt8l.png&lt;/a&gt; &lt;a href=&quot;\nhttp://i.imgur.com/Wd9Kuqll.png&quot; rel=&quot;nofollow&quot; target=&quot;_NEW&quot;&gt;\nhttp://i.imgur.com/Wd9Kuqll.png&lt;/a&gt; &lt;a href=&quot;\nhttp://i.imgur.com/NZ3iTKYl.png&quot; rel=&quot;nofollow&quot; target=&quot;_NEW&quot;&gt;\nhttp://i.imgur.com/NZ3iTKYl.png&lt;/a&gt;\n\n:: Mediainfo ::\n\nGeneral\nUnique ID                                : 202545966516796434675436309506858504298 (0x9860EF27ECC4B5418F482CD0D459506A)\nComplete name                            : D:The.Hunger.Games.Catching.Fire.IMAX.ITA.ENG.AC3.BDRip.1080p.X265_ZMachine.mkv\nFormat                                   : Matroska\nFormat version                           : Version 4 / Version 2\nFile size                                : 6.50 GiB\nDuration                                 : 2h 26mn\nOverall bit rate                         : 6 362 Kbps\nMovie name                               : Hunger Games: La Ragazza di Fuoco (IMAX) - ZMachine\nEncoded date                             : UTC 2014-12-03 12:27:00\nWriting application                      : mkvmerge v7.2.0 ('On Every Street') 32bit built on Sep 13 2014 15:42:11\nWriting library                          : libebml v1.3.0 + libmatroska v1.4.1\n\nVideo\nID                                       : 1\nFormat                                   : HEVC\nFormat/Info                              : High Efficiency Video Coding\nCodec ID                                 : V_MPEGH/ISO/HEVC\nDuration                                 : 2h 26mn\nBit rate                                 : 4 955 Kbps\nWidth                                    : 1 920 pixels\nHeight                                   : 1 080 pixels\nDisplay aspect ratio                     : 16:9\nFrame rate mode                          : Constant\nFrame rate                               : 23.976 fps\nBits/(Pixel*Frame)                       : 0.100\nStream size                              : 5.07 GiB (78%)\nTitle                                    : Video H.265 (Encoded by ZMachine)\nDefault                                  : Yes\nForced                                   : Yes\n\nAudio #1\nID                                       : 2\nFormat                                   : AC-3\nFormat/Info                              : Audio Coding 3\nMode extension                           : CM (complete main)\nFormat settings, Endianness              : Big\nCodec ID                                 : A_AC3\nDuration                                 : 2h 26mn\nBit rate mode                            : Constant\nBit rate                                 : 640 Kbps\nChannel(s)                               : 6 channels\nChannel positions                        : Front: L C R, Side: L R, LFE\nSampling rate                            : 48.0 KHz\nBit depth                                : 16 bits\nCompression mode                         : Lossy\nStream size                              : 670 MiB (10%)\nTitle                                    : Audio AC3 5.1\nLanguage                                 : Italian\nDefault                                  : Yes\nForced                                   : No\n\nAudio #2\nID                                       : 3\nFormat                                   : AC-3\nFormat/Info                              : Audio Coding 3\nMode extension                           : CM (complete main)\nFormat settings, Endianness              : Big\nCodec ID                                 : A_AC3\nDuration                                 : 2h 26mn\nBit rate mode                            : Constant\nBit rate                                 : 640 Kbps\nChannel(s)                               : 6 channels\nChannel positions                        : Front: L C R, Side: L R, LFE\nSampling rate                            : 48.0 KHz\nBit depth                                : 16 bits\nCompression mode                         : Lossy\nStream size                              : 670 MiB (10%)\nTitle                                    : Audio AC3 5.1\nLanguage                                 : English\nDefault                                  : No\nForced                                   : No\n\nText #1\nID                                       : 4\nFormat                                   : ASS\nCodec ID                                 : S_TEXT/ASS\nCodec ID/Info                            : Advanced Sub Station Alpha\nCompression mode                         : Lossless\nTitle                                    : Sub Forced\nLanguage                                 : Italian\nDefault                                  : Yes\nForced                                   : Yes\n\nText #2\nID                                       : 5\nFormat                                   : ASS\nCodec ID                                 : S_TEXT/ASS\nCodec ID/Info                            : Advanced Sub Station Alpha\nCompression mode                         : Lossless\nTitle                                    : Sub\nLanguage                                 : Italian\nDefault                                  : No\nForced                                   : No\n\nText #3\nID                                       : 6\nFormat                                   : ASS\nCodec ID                                 : S_TEXT/ASS\nCodec ID/Info                            : Advanced Sub Station Alpha\nCompression mode                         : Lossless\nTitle                                    : Sub\nLanguage                                 : English\nDefault                                  : No\nForced                                   : No\n\nMenu\n00:00:00.000                             : Chapter 1\n00:11:24.683                             : Chapter 2\n00:16:48.048                             : Chapter 3\n00:25:38.078                             : Chapter 4\n00:35:51.649                             : Chapter 5\n00:44:22.576                             : Chapter 6\n00:52:12.921                             : Chapter 7\n01:01:11.375                             : Chapter 8\n01:08:12.212                             : Chapter 9\n01:16:48.937                             : Chapter 10\n01:22:39.662                             : Chapter 11\n01:29:21.731                             : Chapter 12\n01:40:43.912                             : Chapter 13\n01:50:47.765                             : Chapter 14\n02:02:46.984                             : Chapter 15\n02:09:58.957                             : Chapter 16\n02:26:14.348                             : Chapter 17","torrent":{"xt":"urn:btih:c086c1da9605150a075d65e92bb91abdd91dfcab","amp;dn":"The+Hunger+Games+Catching+Fire+ITA+ENG+AC3+BDRip+1080p+X265+ZMac","amp;tr":["udp%3A%2F%2Ftracker.openbittorrent.com%3A80","udp%3A%2F%2Fopen.demonii.com%3A1337","udp%3A%2F%2Ftracker.coppersurfer.tk%3A6969","udp%3A%2F%2Fexodus.desync.com%3A6969"],"infoHash":"c086c1da9605150a075d65e92bb91abdd91dfcab","infoHashBuffer":{"type":"Buffer","data":[192,134,193,218,150,5,21,10,7,93,101,233,43,185,26,189,217,29,252,171]},"announce":[],"urlList":[]}}